<svg width="24" height="24" viewBox="0 0 24 24" fill="none" xmlns="http://www.w3.org/2000/svg">
<path d="M9.18747 11.0156C8.92874 11.0156 8.71872 11.2256 8.71872 11.4844C8.71872 11.7431 8.92874 11.9531 9.18747 11.9531C9.4462 11.9531 9.65622 11.7431 9.65622 11.4844C9.65622 11.2256 9.4462 11.0156 9.18747 11.0156Z" fill="black"/>
<path d="M20.856 14.903L19.3125 16.4465L18.7064 15.8405C18.5233 15.6573 18.2267 15.6573 18.0435 15.8405C17.8604 16.0234 17.8604 16.3202 18.0435 16.5033L18.981 17.4408C19.0726 17.5323 19.1925 17.5781 19.3125 17.5781C19.4324 17.5781 19.5523 17.5323 19.6439 17.4408L21.5189 15.5658C21.702 15.3829 21.702 15.0861 21.5189 14.903C21.3358 14.7198 21.0392 14.7198 20.856 14.903Z" fill="black"/>
<path d="M23.5312 12.375C23.0224 12.375 22.6107 11.9771 22.5944 11.4692C22.5862 11.2165 22.3789 11.0156 22.1259 11.0156H21.1875C21.1875 9.45336 21.1875 5.52703 21.1875 3.98437C21.1875 3.20892 20.5567 2.57812 19.7812 2.57812H1.40625C0.630797 2.57812 0 3.20892 0 3.98437V16.1718C0 16.9473 0.630797 17.5781 1.40625 17.5781H15.7714C16.5258 20.2523 19.2445 21.3814 19.7792 21.3814C19.9136 21.3814 19.9385 21.3437 20.1082 21.2929C20.7116 21.1126 22.3141 20.6334 23.3882 18.5478C23.7885 17.7705 24 16.896 24 16.0191V12.8437C24 12.5848 23.7901 12.375 23.5312 12.375ZM0.937498 6.32812H20.25V8.20311H0.937498V6.32812ZM1.40625 3.51562H19.7812C20.0398 3.51562 20.25 3.72601 20.25 3.98437V5.39062H0.937498V3.98437C0.937498 3.72601 1.1477 3.51562 1.40625 3.51562ZM0.937498 16.1718V9.14061H20.25V11.0156H17.4375C17.1786 11.0156 16.9687 11.2254 16.9687 11.4844C16.9687 12.0013 16.5481 12.4219 16.0312 12.4219C15.7723 12.4219 15.5625 12.6317 15.5625 12.8906V16.0191C15.5625 16.2293 15.5731 16.437 15.594 16.6406H1.40625C1.1477 16.6406 0.937498 16.4302 0.937498 16.1718ZM23.0625 16.0191C23.0625 16.7475 22.8869 17.4735 22.5549 18.1186C21.6632 19.8495 20.3384 20.2456 19.8396 20.3946C19.8079 20.4041 19.7788 20.4129 19.7521 20.4212C19.5113 20.3423 18.9246 20.1077 18.3252 19.6609C17.0949 18.7443 16.5 17.493 16.5 16.0191V13.3C17.1579 13.1301 17.677 12.611 17.8469 11.9531H21.7271C21.9074 12.5947 22.4168 13.0904 23.0625 13.2543V16.0191Z" fill="black"/>
<path d="M5.15625 13.8281H3C2.74109 13.8281 2.53125 14.038 2.53125 14.2969C2.53125 14.5558 2.74109 14.7656 3 14.7656H5.15625C5.41516 14.7656 5.625 14.5558 5.625 14.2969C5.625 14.038 5.41516 13.8281 5.15625 13.8281Z" fill="black"/>
<path d="M9.18748 13.8281H7.03123C6.77232 13.8281 6.56248 14.038 6.56248 14.2969C6.56248 14.5558 6.77232 14.7656 7.03123 14.7656H9.18748C9.44639 14.7656 9.65623 14.5558 9.65623 14.2969C9.65623 14.038 9.44639 13.8281 9.18748 13.8281Z" fill="black"/>
<path d="M13.2187 13.8281H11.0625C10.8036 13.8281 10.5937 14.038 10.5937 14.2969C10.5937 14.5558 10.8036 14.7656 11.0625 14.7656H13.2187C13.4776 14.7656 13.6875 14.5558 13.6875 14.2969C13.6875 14.038 13.4776 13.8281 13.2187 13.8281Z" fill="black"/>
<path d="M3 11.9531H7.3125C7.57141 11.9531 7.78125 11.7433 7.78125 11.4844C7.78125 11.2255 7.57141 11.0156 7.3125 11.0156H3C2.74109 11.0156 2.53125 11.2255 2.53125 11.4844C2.53125 11.7433 2.74109 11.9531 3 11.9531Z" fill="black"/>
</svg>
