<svg width="24" height="24" viewBox="0 0 24 24" fill="none" xmlns="http://www.w3.org/2000/svg">
<path d="M12.3133 13.0982C12.2689 13.0886 12.2234 13.0868 12.1784 13.0936C11.7276 13.0411 11.3876 12.6597 11.3868 12.2061C11.3868 11.9887 11.2105 11.8124 10.9931 11.8124C10.7757 11.8124 10.5995 11.9887 10.5995 12.2061C10.6006 12.9636 11.1073 13.6272 11.8378 13.8277V14.2213C11.8378 14.4387 12.014 14.615 12.2314 14.615C12.4488 14.615 12.6251 14.4387 12.6251 14.2213V13.8515C13.4682 13.675 14.0412 12.8898 13.9526 12.0331C13.8638 11.1764 13.142 10.5253 12.2806 10.5251C11.787 10.5251 11.3868 10.1249 11.3868 9.63128C11.3868 9.13766 11.787 8.73745 12.2806 8.73745C12.7743 8.73745 13.1745 9.13766 13.1745 9.63128C13.1745 9.84868 13.3507 10.025 13.5681 10.025C13.7855 10.025 13.9618 9.84868 13.9618 9.63128C13.9606 8.83587 13.4034 8.14983 12.6251 7.98567V7.62737C12.6251 7.40997 12.4488 7.2337 12.2314 7.2337C12.014 7.2337 11.8378 7.40997 11.8378 7.62737V8.0097C11.0254 8.23152 10.5026 9.02021 10.6145 9.85483C10.7263 10.6895 11.4385 11.3124 12.2806 11.3123C12.7677 11.3123 13.165 11.7023 13.1739 12.1892C13.1829 12.6761 12.8 13.0805 12.3133 13.0982Z" fill="black"/>
<path d="M6.57205 10.9489C6.57205 14.1017 9.12783 16.6575 12.2806 16.6575C15.4335 16.6575 17.9892 14.1017 17.9892 10.9489C17.9892 7.79607 15.4335 5.2403 12.2806 5.2403C9.12936 5.24376 6.5757 7.79761 6.57205 10.9489ZM12.2806 6.02763C14.9986 6.02763 17.2019 8.23088 17.2019 10.9489C17.2019 13.6669 14.9986 15.8701 12.2806 15.8701C9.56263 15.8701 7.35939 13.6669 7.35939 10.9489C7.36247 8.23222 9.56398 6.03071 12.2806 6.02763Z" fill="black"/>
<path d="M19.9299 17.6281L16.8461 19.0851C16.4203 18.2931 15.6036 17.7891 14.7047 17.7638L11.8579 17.6855C11.4072 17.6727 10.9649 17.5585 10.5641 17.3514L10.2744 17.2013C8.79124 16.4282 7.02339 16.4301 5.54174 17.2063L5.55981 16.5501C5.56577 16.3327 5.3945 16.1516 5.1771 16.1456L2.05542 16.0597C1.83802 16.0538 1.65714 16.225 1.65118 16.4424L1.46261 23.2928C1.45666 23.5102 1.62792 23.6913 1.84533 23.6973L4.967 23.7832H4.97777C5.19113 23.7832 5.36567 23.6134 5.37143 23.4003L5.38047 23.0725L6.19145 22.6383C6.50977 22.467 6.88191 22.4263 7.22964 22.5247L12.0725 23.8839C12.0809 23.8864 12.0894 23.8883 12.098 23.8902C12.4481 23.9635 12.8048 24.0002 13.1624 24C13.9197 24.0004 14.6682 23.8372 15.3566 23.5212C15.3735 23.5135 15.3898 23.5045 15.4054 23.4943L22.427 18.9525C22.602 18.8392 22.6585 18.6095 22.556 18.4281C22.0347 17.5031 20.8785 17.1508 19.9299 17.6281ZM2.26053 22.9211L2.42737 16.8576L4.7619 16.9218L4.59505 22.9855L2.26053 22.9211ZM15.0019 22.818C14.1467 23.204 13.1916 23.3105 12.2724 23.1227L7.44262 21.767C6.89902 21.6134 6.31716 21.677 5.81989 21.9444L5.40546 22.1664L5.51637 18.1349C6.82963 17.2615 8.51387 17.1717 9.91247 17.9004L10.2021 18.0506C10.7085 18.312 11.2669 18.4561 11.8364 18.4727L14.6834 18.5509C15.483 18.574 16.1622 19.1433 16.3244 19.9268L12.0838 19.8098C11.8664 19.8038 11.6855 19.9753 11.6794 20.1925C11.6734 20.4099 11.8449 20.591 12.0621 20.5969L16.7419 20.7257H16.7529C16.966 20.7255 17.1404 20.5558 17.1461 20.3428C17.1509 20.1717 17.1383 20.0005 17.1081 19.8321L20.2711 18.3375C20.2742 18.3362 20.2772 18.3347 20.2803 18.3331C20.729 18.1061 21.2714 18.182 21.6405 18.5236L15.0019 22.818Z" fill="black"/>
<path d="M12.6743 4.13353V0.393669C12.6743 0.176267 12.4981 0 12.2807 0C12.0633 0 11.887 0.176267 11.887 0.393669V4.13353C11.887 4.35093 12.0633 4.5272 12.2807 4.5272C12.4981 4.5272 12.6743 4.35093 12.6743 4.13353Z" fill="black"/>
<path d="M15.6268 4.1335V2.36199C15.6268 2.14459 15.4506 1.96832 15.2332 1.96832C15.0158 1.96832 14.8395 2.14459 14.8395 2.36199V4.1335C14.8395 4.35091 15.0158 4.52717 15.2332 4.52717C15.4506 4.52717 15.6268 4.35091 15.6268 4.1335Z" fill="black"/>
<path d="M9.72178 4.1335V2.36199C9.72178 2.14459 9.54552 1.96832 9.32812 1.96832C9.11071 1.96832 8.93445 2.14459 8.93445 2.36199V4.1335C8.93445 4.35091 9.11071 4.52717 9.32812 4.52717C9.54552 4.52717 9.72178 4.35091 9.72178 4.1335Z" fill="black"/>
</svg>
