<svg width="24" height="24" viewBox="0 0 24 24" fill="none" xmlns="http://www.w3.org/2000/svg">
<g clip-path="url(#clip0)">
<path d="M22.25 24H16.75C15.785 24 15 23.215 15 22.25V18.75C15 17.785 15.785 17 16.75 17H22.25C23.215 17 24 17.785 24 18.75V22.25C24 23.215 23.215 24 22.25 24ZM16.75 18.5C16.612 18.5 16.5 18.612 16.5 18.75V22.25C16.5 22.388 16.612 22.5 16.75 22.5H22.25C22.388 22.5 22.5 22.388 22.5 22.25V18.75C22.5 18.612 22.388 18.5 22.25 18.5H16.75Z" fill="black"/>
<path d="M21.25 18.5H17.75C17.336 18.5 17 18.164 17 17.75V15.5C17 14.122 18.121 13 19.5 13C20.879 13 22 14.122 22 15.5V17.75C22 18.164 21.664 18.5 21.25 18.5ZM18.5 17H20.5V15.5C20.5 14.949 20.052 14.5 19.5 14.5C18.948 14.5 18.5 14.949 18.5 15.5V17Z" fill="black"/>
<path d="M8.5 21C8.452 21 8.404 20.996 8.357 20.986C8.273 20.97 0 19.261 0 9.92998V3.74998C0 3.43998 0.19 3.16298 0.479 3.05098L8.229 0.0509824C8.403 -0.0160176 8.596 -0.0160176 8.77 0.0509824L16.52 3.05098C16.81 3.16298 17 3.43998 17 3.74998V9.92998C17 10.499 16.969 11.033 16.904 11.56C16.854 11.971 16.488 12.259 16.069 12.214C15.658 12.164 15.365 11.79 15.416 11.379C15.473 10.912 15.5 10.438 15.5 9.92898V4.26398L8.5 1.55498L1.5 4.26398V9.92998C1.5 17.485 7.448 19.232 8.495 19.481C8.94 19.37 10.38 18.948 11.822 17.877C12.157 17.629 12.625 17.699 12.872 18.032C13.118 18.365 13.049 18.835 12.717 19.081C10.703 20.576 8.725 20.97 8.642 20.985C8.595 20.996 8.548 21 8.5 21Z" fill="black"/>
</g>
<defs>
<clipPath id="clip0">
<rect width="24" height="24" fill="white"/>
</clipPath>
</defs>
</svg>
