<svg width="96" height="30" viewBox="0 0 96 30" fill="none" xmlns="http://www.w3.org/2000/svg">
<rect width="95.8799" height="29.8846" rx="3" fill="#FFD300"/>
<path fill-rule="evenodd" clip-rule="evenodd" d="M74.2876 24.3154L75.3176 19.6338H6.01069L4.98073 24.3154H74.2876Z" fill="white"/>
<path fill-rule="evenodd" clip-rule="evenodd" d="M79.0066 6.22559H86.6471L85.4298 11.8997H91.0853L89.6246 18.9784H83.9504L82.8268 24.3154H76.5909L76.9654 22.4615H81.31L82.3961 17.1806H88.1077L88.8193 13.6975H83.1639L84.3437 8.02334H80.5048L79.325 13.6975H77.3962L79.0066 6.22559Z" fill="#EC1C24"/>
<path fill-rule="evenodd" clip-rule="evenodd" d="M27.3027 12.0873H25.224V12.1248L22.2091 18.6978L22.1716 12.1809V12.0873H19.6061L19.5686 12.1248L16.7409 18.6978L16.4975 12.1809V12.0873H14.475L14.5125 12.1809L15.0743 21.151V21.2446H17.4338V21.1884L20.4675 14.3532L20.5611 21.151V21.2446H22.9581V21.1884L27.2652 12.2184L27.3027 12.0873ZM29.8495 12.0873H27.7896L27.7334 12.1809L25.842 21.151V21.2446H27.9207V21.151L29.812 12.1809L29.8495 12.0873ZM39.9056 11.9375C38.2952 11.9375 36.46 12.6491 36.46 14.7278C36.46 16.0948 37.4525 16.6191 38.2577 17.0873C38.9693 17.4618 39.5311 17.7989 39.5311 18.5105C39.5311 19.4094 38.7259 19.7839 37.9206 19.7839C37.1154 19.7839 36.4038 19.503 35.7484 19.166L35.6547 19.1098L35.5985 19.2596L35.1678 20.7764L35.1117 20.8701H35.2053C36.1042 21.2446 37.003 21.3944 37.8083 21.3944C39.0817 21.3944 40.1304 21.0573 40.7858 20.4019C41.3101 19.8776 41.591 19.166 41.591 18.3233C41.591 16.8626 40.5611 16.2446 39.6997 15.7203C39.0442 15.3457 38.5199 15.0087 38.5199 14.4469C38.5199 14.2596 38.6135 14.0723 38.7633 13.9225C39.0442 13.6416 39.5686 13.548 39.9431 13.548C40.5049 13.548 41.2165 13.6978 41.7408 13.9787L41.8907 14.0349V13.9412L42.3214 12.4806L42.3776 12.3869L42.2839 12.3308C41.6098 12.0873 40.8045 11.9375 39.9056 11.9375ZM35.8982 12.3682L35.8045 12.312C35.1491 12.0686 34.3813 11.9375 33.445 11.9375C31.8907 11.9375 30.0368 12.6491 30.0368 14.7278C30.0368 16.0948 30.9731 16.6191 31.8345 17.0873C32.4899 17.4618 33.0705 17.7989 33.0705 18.5105C33.0705 19.4094 32.2652 19.7839 31.46 19.7839C30.7109 19.7839 29.9431 19.503 29.3439 19.166L29.2502 19.1098L29.1941 19.2596L28.7259 20.7764V20.8701H28.7821C29.7184 21.2446 30.5798 21.3944 31.3851 21.3944C32.7147 21.3944 33.7446 21.0573 34.4 20.4019C34.9244 19.8776 35.1491 19.166 35.1491 18.3233C35.1491 16.8626 34.1191 16.2446 33.2577 15.7203C32.6398 15.3457 32.078 15.0087 32.078 14.4469C32.078 14.2596 32.1716 14.0723 32.3214 13.9225C32.6023 13.6416 33.1266 13.548 33.5012 13.548C34.1191 13.548 34.7746 13.6978 35.3364 13.9787L35.43 14.0349L35.4862 13.9412L35.9169 12.4806V12.3682H35.8982ZM11.7222 11.9375C10.1679 11.9375 8.27653 12.6491 8.27653 14.7278C8.27653 16.0948 9.26904 16.6191 10.1117 17.0873C10.7672 17.4618 11.3477 17.7989 11.3477 18.5105C11.3477 19.4094 10.5424 19.7839 9.7372 19.7839C8.93196 19.7839 8.22035 19.503 7.56492 19.166L7.47129 19.1098V19.2596L7.00313 20.7764L6.94695 20.8701H7.04058C7.93945 21.2446 8.83833 21.3944 9.64357 21.3944C10.9732 21.3944 12.0031 21.0573 12.6211 20.4019C13.1454 19.8776 13.4263 19.166 13.4263 18.3233C13.4263 16.8626 12.3964 16.2446 11.5349 15.7203C10.917 15.3457 10.3552 15.0087 10.3552 14.4469C10.3552 14.2596 10.4488 14.0723 10.5986 13.9225C10.8795 13.6416 11.4039 13.548 11.7784 13.548C12.3964 13.548 13.0518 13.6978 13.6136 13.9787L13.7072 14.0349V13.9412L14.1379 12.4618L14.1941 12.3682L14.1005 12.312C13.4263 12.0873 12.6211 11.9375 11.7222 11.9375ZM48.1266 12.0873H46.4974V12.1809L44.606 21.151V21.2072L44.5498 21.2633H46.5536L46.6097 21.1697C46.6097 21.1697 47.2277 18.4356 47.2277 18.2484H48.2202C49.4 18.2484 50.5423 17.8176 51.2352 17.106C51.797 16.5442 52.1341 15.739 52.1341 14.8401C52.1341 14.1285 51.8906 13.5105 51.4786 13.0985C50.6734 12.2746 49.2127 12.0873 48.1266 12.0873ZM48.1828 13.6978H48.7071C49.0816 13.6978 49.4562 13.8476 49.7371 14.0723C49.9805 14.3158 50.1116 14.6341 50.1116 15.0087C50.1116 16.0386 49.0816 16.6191 48.1266 16.6191H47.6023L48.1828 13.6978ZM60.2614 12.9862C59.606 12.3308 58.6509 11.9562 57.4337 11.9562C55.8794 11.9562 54.7371 12.4806 53.7071 13.6603C52.7708 14.7465 52.2464 16.1697 52.2464 17.6304C52.2464 18.754 52.621 19.7465 53.3326 20.4581C53.988 21.1135 54.8494 21.4506 55.8794 21.4506C57.5273 21.4506 58.8569 20.9263 59.7558 19.8963C60.7483 18.8102 61.3101 17.3869 61.3101 15.8888C61.2913 14.6341 60.9168 13.6416 60.2614 12.9862ZM56.1041 19.8214C55.6359 19.8214 55.2052 19.6716 54.8869 19.3532C54.5123 18.9787 54.3251 18.4169 54.3251 17.7053C54.3251 16.4319 54.8494 15.1023 55.5985 14.3532C56.1228 13.8289 56.7221 13.548 57.3962 13.548C57.9206 13.548 58.3326 13.7353 58.6696 14.0162C59.0442 14.3907 59.2314 14.9525 59.2314 15.6641C59.2127 17.3682 58.1453 19.8214 56.1041 19.8214ZM68.0891 12.3682C67.4337 12.0873 66.6284 11.9375 65.7295 11.9375C64.1191 11.9375 62.2839 12.6866 62.2839 14.7652C62.2839 16.1323 63.2202 16.6566 64.0816 17.1248C64.737 17.4993 65.355 17.8364 65.355 18.4918C65.355 19.3907 64.5498 19.8214 63.7445 19.8214C62.9393 19.8214 62.1902 19.4843 61.5722 19.2034L61.4786 19.1472V19.2034L61.4412 19.2596L60.973 20.8139V20.9263H61.0104C61.9468 21.2633 62.8082 21.4506 63.6134 21.4506C64.943 21.4506 65.973 21.1135 66.6284 20.4581C67.1528 19.9337 67.3775 19.2221 67.3775 18.342C67.3775 16.8813 66.3475 16.2633 65.4861 15.7952C64.8681 15.4206 64.3625 15.0836 64.3625 14.5218C64.3625 14.3345 64.4187 14.1472 64.5498 13.96C64.9243 13.6229 65.5797 13.5854 65.7857 13.5854C66.3475 13.5854 67.0217 13.7727 67.5835 14.0536L67.6771 14.1098V14.0536L67.7146 13.9974L68.1453 12.4806V12.3682H68.0891ZM75.7857 12.0873H68.6883L68.6509 12.1809L68.37 13.548V13.6416L68.3138 13.6978H70.8793L69.2689 21.151V21.2072L69.2127 21.2633H71.31V21.1697C71.31 21.1697 72.8643 14.0349 72.958 13.7165H75.4486V13.6603L75.5048 13.6042L75.7857 12.1809V12.0873Z" fill="#231F20"/>
</svg>
