<svg width="48" height="31" viewBox="0 0 48 31" fill="none" xmlns="http://www.w3.org/2000/svg">
<g clip-path="url(#clip0)">
<path opacity="0.07" d="M44.2644 0.15918H4.41826C2.30143 0.15918 0.682678 1.77793 0.682678 3.89476V26.3082C0.682678 28.4251 2.42595 30.0438 4.41826 30.0438H44.2644C46.3813 30.0438 48 28.4251 48 26.3082V3.89476C48 1.77793 46.2567 0.15918 44.2644 0.15918Z" fill="black"/>
<path d="M44.2644 1.4043C45.6341 1.4043 46.7548 2.52497 46.7548 3.89468V26.3082C46.7548 27.6779 45.6341 28.7985 44.2644 28.7985H4.41824C3.04853 28.7985 1.92786 27.6779 1.92786 26.3082V3.89468C1.92786 2.52497 3.04853 1.4043 4.41824 1.4043H44.2644Z" fill="white"/>
<path d="M35.9216 12.7355H35.5481C35.05 13.9807 34.6764 14.6033 34.3029 16.4711H36.6687C36.2952 14.6033 36.2952 13.7317 35.9216 12.7355ZM39.5327 20.0821H37.4159C37.2913 20.0821 37.2913 20.0821 37.1668 19.9576L36.9178 18.837L36.7933 18.5879H33.8048C33.6803 18.5879 33.5558 18.5879 33.5558 18.837L33.1822 19.9576C33.1822 20.0821 33.0577 20.0821 33.0577 20.0821H30.4428L30.6918 19.4596L34.3029 10.9922C34.3029 10.3696 34.6764 10.1206 35.299 10.1206H37.1668C37.2913 10.1206 37.4159 10.1206 37.4159 10.3696L39.1591 18.4634C39.2837 18.9615 39.4082 19.335 39.4082 19.8331C39.5327 19.9576 39.5327 19.9576 39.5327 20.0821ZM22.8471 19.7086L23.3452 17.4672C23.4697 17.4672 23.5942 17.5918 23.5942 17.5918C24.4659 17.9653 25.3375 18.2144 26.2091 18.0898C26.4582 18.0898 26.8317 17.9653 27.0808 17.8408C27.7034 17.5918 27.7034 16.9692 27.2053 16.4711C26.9562 16.2221 26.5827 16.0975 26.2091 15.8485C25.711 15.5995 25.213 15.3504 24.8394 14.9769C23.3452 13.7317 23.8433 11.9884 24.7149 11.1168C25.462 10.6187 25.8356 10.1206 26.8317 10.1206C28.326 10.1206 29.9447 10.1206 30.6918 10.3696H30.8163C30.6918 11.1168 30.5673 11.7394 30.3183 12.4865C29.6957 12.2374 29.0731 11.9884 28.4505 11.9884C28.0769 11.9884 27.7034 11.9884 27.3298 12.1129C27.0808 12.1129 26.9562 12.2374 26.8317 12.362C26.5827 12.611 26.5827 12.9845 26.8317 13.2336L27.4543 13.7317C27.9524 13.9807 28.4505 14.2297 28.824 14.4788C29.4466 14.8523 30.0692 15.4749 30.1937 16.222C30.4428 17.3427 30.0692 18.3389 29.0731 19.086C28.4505 19.5841 28.2014 19.8331 27.3298 19.8331C25.5865 19.8331 24.2168 19.9576 23.0961 19.5841C22.9716 19.8331 22.9716 19.8331 22.8471 19.7086ZM18.4889 20.0821C18.6134 19.2105 18.6134 19.2105 18.738 18.837C19.3606 16.0975 19.9832 13.2336 20.4812 10.4942C20.6058 10.2451 20.6058 10.1206 20.8548 10.1206H23.0961C22.8471 11.6148 22.5981 12.7355 22.2245 14.1052C21.8509 15.973 21.4774 17.8408 20.9793 19.7086C20.9793 19.9576 20.8548 19.9576 20.6058 19.9576L18.4889 20.0821ZM6.90863 10.3696C6.90863 10.2451 7.15767 10.1206 7.28219 10.1206H11.5158C12.1384 10.1206 12.6365 10.4942 12.761 11.1168L13.8817 16.5956C13.8817 16.7201 13.8817 16.7201 14.0062 16.8446C14.0062 16.7201 14.1308 16.7201 14.1308 16.7201L16.7457 10.3696C16.6211 10.2451 16.7457 10.1206 16.8702 10.1206H19.4851C19.4851 10.2451 19.4851 10.2451 19.3606 10.3696L15.5005 19.4596C15.3759 19.7086 15.3759 19.8331 15.2514 19.9576C15.1269 20.0821 14.8779 19.9576 14.6288 19.9576H12.761C12.6365 19.9576 12.512 19.9576 12.512 19.7086L10.5197 11.9884C10.2707 11.7394 9.89709 11.3658 9.39902 11.2413C8.6519 10.8677 7.28219 10.6187 7.03315 10.6187L6.90863 10.3696Z" fill="#142688"/>
</g>
<defs>
<clipPath id="clip0">
<rect width="47.3173" height="29.8846" fill="white" transform="translate(0.682678 0.15918)"/>
</clipPath>
</defs>
</svg>
