<svg width="49" height="31" viewBox="0 0 49 31" fill="none" xmlns="http://www.w3.org/2000/svg">
<g clip-path="url(#clip0)">
<path opacity="0.07" d="M44.3702 0.15918H4.52403C2.4072 0.15918 0.788452 1.77793 0.788452 3.89476V26.3082C0.788452 28.4251 2.53172 30.0438 4.52403 30.0438H44.3702C46.487 30.0438 48.1058 28.4251 48.1058 26.3082V3.89476C48.1058 1.77793 46.3625 0.15918 44.3702 0.15918Z" fill="black"/>
<path d="M44.3702 1.4043C45.7399 1.4043 46.8606 2.52497 46.8606 3.89468V26.3082C46.8606 27.6779 45.7399 28.7985 44.3702 28.7985H4.52403C3.15432 28.7985 2.03365 27.6779 2.03365 26.3082V3.89468C2.03365 2.52497 3.15432 1.4043 4.52403 1.4043H44.3702Z" fill="white"/>
<path d="M30.5486 10.4944C30.7976 9.2492 30.5486 8.37756 29.8015 7.63045C29.0543 6.75881 27.6846 6.38525 25.9414 6.38525H20.8361C20.4625 6.38525 20.2135 6.63429 20.089 7.00785L18.2212 19.5843C18.2212 19.8333 18.3457 20.0824 18.5947 20.0824H21.9567L22.4548 15.8487L24.6962 13.1093L30.5486 10.4944Z" fill="#003087"/>
<path d="M30.5486 10.4941L30.2995 10.7432C29.6769 14.2297 27.5601 15.4749 24.5716 15.4749H23.2019C22.8284 15.4749 22.5793 15.724 22.4548 16.0975L21.7077 20.9538L21.4586 22.199C21.4586 22.448 21.5832 22.697 21.8322 22.697H24.4471C24.8207 22.697 25.0697 22.448 25.0697 22.199V22.0744L25.5678 19.086V18.9615C25.5678 18.7124 25.9413 18.4634 26.1904 18.4634H26.5639C29.1789 18.4634 31.1712 17.4672 31.6692 14.4788C31.9183 13.2336 31.7938 12.2374 31.1712 11.4903C31.0466 10.8677 30.7976 10.6187 30.5486 10.4941Z" fill="#3086C8"/>
<path d="M29.8015 10.2451C29.6769 10.1206 29.5524 10.1206 29.4279 10.1206C29.3034 10.1206 29.1789 10.1206 29.0543 9.9961C28.6808 9.87158 28.1827 9.87158 27.6846 9.87158H23.9491C23.8245 9.87158 23.7 9.87158 23.7 9.9961C23.451 10.1206 23.3265 10.2451 23.3265 10.4942L22.4548 15.973V16.0975C22.4548 15.724 22.8284 15.4749 23.2019 15.4749H24.8207C27.9337 15.4749 29.926 14.2298 30.5486 10.7432V10.4942C30.4241 10.3697 30.175 10.2451 29.926 10.2451H29.8015Z" fill="#012169"/>
</g>
<defs>
<clipPath id="clip0">
<rect width="47.3173" height="29.8846" fill="white" transform="translate(0.788452 0.15918)"/>
</clipPath>
</defs>
</svg>
