<svg width="49" height="31" viewBox="0 0 49 31" fill="none" xmlns="http://www.w3.org/2000/svg">
<g clip-path="url(#clip0)">
<path opacity="0.07" d="M44.476 0.15918H4.62981C2.51298 0.15918 0.894226 1.77793 0.894226 3.89476V26.3082C0.894226 28.4251 2.6375 30.0438 4.62981 30.0438H44.476C46.5928 30.0438 48.2116 28.4251 48.2116 26.3082V3.89476C48.2116 1.77793 46.4683 0.15918 44.476 0.15918Z" fill="black"/>
<path d="M44.476 1.4043C45.8457 1.4043 46.9664 2.52497 46.9664 3.89468V26.3082C46.9664 27.6779 45.8457 28.7985 44.476 28.7985H4.62981C3.26009 28.7985 2.13942 27.6779 2.13942 26.3082V3.89468C2.13942 2.52497 3.26009 1.4043 4.62981 1.4043H44.476Z" fill="white"/>
<path d="M19.5721 23.818C24.386 23.818 28.2885 19.9155 28.2885 15.1016C28.2885 10.2877 24.386 6.38525 19.5721 6.38525C14.7582 6.38525 10.8558 10.2877 10.8558 15.1016C10.8558 19.9155 14.7582 23.818 19.5721 23.818Z" fill="#EB001B"/>
<path d="M29.5337 23.818C34.3476 23.818 38.25 19.9155 38.25 15.1016C38.25 10.2877 34.3476 6.38525 29.5337 6.38525C24.7198 6.38525 20.8173 10.2877 20.8173 15.1016C20.8173 19.9155 24.7198 23.818 29.5337 23.818Z" fill="#F79E1B"/>
<path d="M28.2885 15.1015C28.2885 12.113 26.7942 9.49814 24.5529 8.00391C22.3116 9.62266 20.8173 12.2376 20.8173 15.1015C20.8173 17.9655 22.3116 20.7049 24.5529 22.1991C26.7942 20.7049 28.2885 18.09 28.2885 15.1015Z" fill="#FF5F00"/>
</g>
<defs>
<clipPath id="clip0">
<rect width="47.3173" height="29.8846" fill="white" transform="translate(0.894226 0.15918)"/>
</clipPath>
</defs>
</svg>
