<svg width="48" height="31" viewBox="0 0 48 31" fill="none" xmlns="http://www.w3.org/2000/svg">
<g clip-path="url(#clip0)">
<path d="M3.73558 0.15918H43.5818C44.5725 0.15918 45.5227 0.552748 46.2232 1.25331C46.9238 1.95386 47.3173 2.90402 47.3173 3.89476V26.2709C47.3173 27.2616 46.9238 28.2118 46.2232 28.9123C45.5227 29.6129 44.5725 30.0065 43.5818 30.0065H3.73558C2.74484 30.0065 1.79468 29.6129 1.09413 28.9123C0.393569 28.2118 0 27.2616 0 26.2709L0 3.89476C0 2.90402 0.393569 1.95386 1.09413 1.25331C1.79468 0.552748 2.74484 0.15918 3.73558 0.15918V0.15918Z" fill="black"/>
<path d="M14.7207 18.1859C14.7155 18.2813 14.6881 18.3742 14.6405 18.457C14.5929 18.5398 14.5265 18.6103 14.4467 18.6628L9.10237 21.7472C9.01704 21.7903 8.92278 21.8128 8.82718 21.8128C8.73158 21.8128 8.63731 21.7903 8.55199 21.7472L3.20762 18.6628C3.12781 18.6103 3.06145 18.5398 3.01387 18.457C2.96628 18.3742 2.93882 18.2813 2.93368 18.1859V12.016C2.93901 11.9208 2.96657 11.8282 3.01414 11.7456C3.06171 11.663 3.12798 11.5927 3.20762 11.5403L8.55199 8.45474C8.63731 8.41162 8.73158 8.38916 8.82718 8.38916C8.92278 8.38916 9.01704 8.41162 9.10237 8.45474L14.4455 11.5403C14.5254 11.5926 14.5919 11.6628 14.6397 11.7454C14.6875 11.828 14.7152 11.9207 14.7207 12.016V18.1859ZM44.3849 12.4618H39.5971V13.5986H41.313V18.4835H42.6678V13.5986H44.3849V12.4605V12.4618ZM22.6538 12.4605H17.866V13.5974H19.5832V18.4823H20.9379V13.5974H22.6538V12.4593V12.4605ZM36.5004 12.2688C34.9949 12.2688 34.1569 13.2288 34.1569 14.6184V18.4823H35.4955V14.5911C35.4955 13.9859 35.8553 13.5202 36.5153 13.5202C37.1752 13.5202 37.5301 14.0731 37.5301 14.5911V18.4848H38.8687V14.6209C38.8687 13.2313 38.0021 12.2713 36.4979 12.2713H36.5004V12.2688ZM31.4436 12.4605H32.7884V18.4823H31.4436V12.4605ZM26.9061 14.8451L26.951 15.1128L28.2074 18.4823H28.7552L30.4674 12.4593H29.1437L28.3281 15.6233L28.2796 15.962L28.2136 15.6233L27.1241 12.4605H26.6882L25.5974 15.6233L25.5314 15.962L25.4829 15.6233L24.6685 12.4605H23.3436L25.0558 18.4823H25.6037L26.8613 15.1128L26.9061 14.8451Z" fill="white"/>
<path d="M11.6102 15.1162L10.2181 17.1583L9.50456 16.0651L10.3289 14.8348C10.482 14.6144 10.8083 14.013 10.431 13.1899C10.2932 12.8939 10.0738 12.6433 9.79849 12.4677C9.5232 12.2922 9.2035 12.1988 8.87698 12.1987C8.55068 12.1991 8.23124 12.2925 7.95619 12.4681C7.68114 12.6437 7.46191 12.8941 7.32423 13.1899C7.19242 13.4431 7.13162 13.7273 7.14828 14.0123C7.16494 14.2973 7.25844 14.5725 7.41886 14.8087L8.25812 16.0476L8.87449 16.9392L9.80839 18.3649C9.85447 18.434 9.91608 18.4914 9.98829 18.5325C10.0605 18.5736 10.1413 18.5972 10.2243 18.6015C10.4733 18.6015 10.6252 18.3786 10.6452 18.3512L12.8292 15.1175H11.6102V15.1162ZM8.86827 15.1685C8.86827 15.1685 8.50343 14.6157 8.26684 14.2296C8.20779 14.1252 8.17689 14.0072 8.17718 13.8872C8.17718 13.5074 8.48848 13.1949 8.86827 13.1949C9.24805 13.1949 9.56059 13.5074 9.56059 13.8872C9.56089 14.0072 9.52999 14.1252 9.47094 14.2296C9.23809 14.6157 8.87449 15.1685 8.87449 15.1685H8.86827Z" fill="#FF4800"/>
<path d="M7.52843 17.0938L6.15997 15.1713C6.15997 15.1713 5.79513 14.6159 5.55854 14.2299C5.49825 14.1254 5.46647 14.0069 5.46639 13.8862C5.46639 13.5077 5.77769 13.1976 6.15499 13.1976H6.15997C6.22774 13.1973 6.29523 13.2066 6.36044 13.225L6.84482 12.3409C6.43551 12.1639 5.97331 12.1535 5.55642 12.3118C5.13953 12.4702 4.8008 12.7848 4.61219 13.1889C4.48014 13.4423 4.41921 13.7267 4.43587 14.012C4.45254 14.2972 4.54617 14.5726 4.70683 14.8089L7.0976 18.354C7.11752 18.3851 7.27068 18.608 7.5247 18.608C7.60944 18.603 7.69176 18.5778 7.76477 18.5344C7.83777 18.4911 7.89934 18.4309 7.94433 18.3589L8.66654 17.2582L8.04643 16.3442L7.52719 17.0938H7.52843Z" fill="#007CE2"/>
</g>
<defs>
<clipPath id="clip0">
<rect width="47.3173" height="29.8846" fill="white" transform="translate(0 0.15918)"/>
</clipPath>
</defs>
</svg>
